# xmcd
#
# Track frame offsets: 
#        150
#        17522
#        32786
#        51129
#        86474
#        147324
#        184606
#        205468
#        227920
#        251343
#        273332
#
# Disc length: 4203 seconds
#
# Revision: 1
# Processed by: cddbd v1.5.2PL0 Copyright (c) Steve Scherf et al.
# Submitted via: ExactAudioCopyFreeDBPlugin 1.0
#
DISCID=9110690b
DTITLE=Miles Davis - Tune Up - Modern Jazz Archive
DYEAR=1954
DGENRE=Blues
TTITLE0=Tune Up  (1953)
TTITLE1=Old Devil Moon  (1954)
TTITLE2=It Never Entered My Mind  (1954)
TTITLE3=I'll Remember April  (1954)
TTITLE4=Walkin'  (1954)
TTITLE5=Blue'N'Boogie  (1954)
TTITLE6=But Not For Me  (1954)
TTITLE7=Airegin  (1954)
TTITLE8=Oleo  (1954)
TTITLE9=Doxy  (1954)
TTITLE10=Bags' Groove  (1954)
EXTD=
EXTT0=
EXTT1=
EXTT2=
EXTT3=
EXTT4=
EXTT5=
EXTT6=
EXTT7=
EXTT8=
EXTT9=
EXTT10=
PLAYORDER=
